<svg width="80" height="80" viewBox="0 0 80 80" fill="none" xmlns="http://www.w3.org/2000/svg">
<path d="M63 23.333C66.0148 28.3369 67.3031 34.1925 66.6667 39.9997V43.333C66.6628 46.8426 67.5824 50.2914 69.3333 53.333" stroke="#736D70" stroke-width="5" stroke-linecap="round" stroke-linejoin="round"/>
<path d="M26.6665 36.6663C26.6665 33.1301 28.0713 29.7387 30.5717 27.2383C33.0722 24.7378 36.4636 23.333 39.9998 23.333C43.5361 23.333 46.9274 24.7378 49.4279 27.2383C51.9284 29.7387 53.3332 33.1301 53.3332 36.6663V39.9997C53.3332 47.212 55.6724 54.2298 59.9998 59.9997" stroke="#736D70" stroke-width="5" stroke-linecap="round" stroke-linejoin="round"/>
<path d="M40 36.667V43.3337C39.9894 52.865 42.8975 62.171 48.3334 70.0003" stroke="#736D70" stroke-width="5" stroke-linecap="round" stroke-linejoin="round"/>
<path d="M26.6665 50C27.4822 56.9661 29.5129 63.7353 32.6665 70" stroke="#736D70" stroke-width="5" stroke-linecap="round" stroke-linejoin="round"/>
<path d="M16.3334 63.3338C14.0843 55.7681 13.0712 47.889 13.3334 40.0005V36.6671C13.3207 31.98 14.5435 27.3723 16.8788 23.3083C19.2141 19.2443 22.5793 15.8677 26.6353 13.5186C30.6913 11.1695 35.2948 9.93092 39.9819 9.92774C44.6691 9.92456 49.2743 11.1569 53.3335 13.5004" stroke="#736D70" stroke-width="5" stroke-linecap="round" stroke-linejoin="round"/>
</svg>
