<svg width="20" height="20" viewBox="0 0 20 20" fill="none" xmlns="http://www.w3.org/2000/svg">
<path d="M4.38959 9.73583C4.96341 9.73347 5.53634 9.69012 6.10398 9.60609C6.34976 9.56923 6.57083 9.43624 6.71855 9.23638C6.86627 9.03652 6.92855 8.78616 6.89168 8.54039C6.85482 8.29461 6.72182 8.07354 6.52197 7.92582C6.32211 7.7781 6.07175 7.71582 5.82597 7.75269C4.59346 7.9473 2.53618 7.91023 1.99869 7.25227C1.82262 7.0484 1.83189 6.68698 1.99869 6.18656C2.06118 6.06958 2.09783 5.94054 2.10617 5.80817C2.1145 5.6758 2.09432 5.54319 2.047 5.41929C1.99967 5.29539 1.92631 5.18309 1.83185 5.08998C1.7374 4.99687 1.62406 4.92512 1.49949 4.87958C1.37492 4.83404 1.24203 4.81577 1.1098 4.826C0.977563 4.83624 0.849065 4.87473 0.732988 4.9389C0.61691 5.00306 0.515957 5.09139 0.436951 5.19792C0.357945 5.30445 0.302726 5.4267 0.275027 5.55641C0.0534469 6.01681 -0.0369687 6.52937 0.0137105 7.03779C0.0643897 7.54622 0.254203 8.03085 0.562305 8.43845C1.42414 9.50416 3.08294 9.73583 4.38959 9.73583ZM5.82597 10.8849C4.50079 11.0888 2.42498 11.0147 1.97089 10.3475C1.90137 10.2465 1.81252 10.1603 1.70947 10.094C1.60642 10.0276 1.49123 9.98233 1.37056 9.96078C1.2499 9.93923 1.12616 9.94184 1.00651 9.96845C0.886857 9.99505 0.773672 10.0451 0.673509 10.1158C0.570896 10.1824 0.482484 10.2686 0.413371 10.3696C0.344259 10.4705 0.295814 10.5841 0.27083 10.7039C0.245846 10.8236 0.244819 10.9471 0.267806 11.0673C0.290794 11.1874 0.337342 11.3018 0.404765 11.4039C1.22026 12.5901 2.981 12.8496 4.35252 12.8496C4.92651 12.8516 5.49977 12.8083 6.06692 12.7198C6.19157 12.7074 6.3124 12.6698 6.42211 12.6093C6.53182 12.5488 6.62813 12.4667 6.70522 12.368C6.78232 12.2692 6.83859 12.1559 6.87063 12.0348C6.90268 11.9137 6.90984 11.7873 6.89168 11.6634C6.87363 11.5419 6.83163 11.4253 6.7681 11.3202C6.70458 11.2151 6.62081 11.1237 6.52165 11.0512C6.42249 10.9788 6.30993 10.9268 6.1905 10.8983C6.07108 10.8697 5.94717 10.8652 5.82597 10.8849ZM5.82597 13.9987C4.50079 14.2025 2.42498 14.1284 1.97089 13.4612C1.90137 13.3602 1.81252 13.2741 1.70947 13.2077C1.60642 13.1413 1.49123 13.096 1.37056 13.0745C1.2499 13.053 1.12616 13.0556 1.00651 13.0822C0.886857 13.1088 0.773672 13.1588 0.673509 13.2295C0.570896 13.2961 0.482484 13.3823 0.413371 13.4833C0.344259 13.5842 0.295814 13.6978 0.27083 13.8176C0.245846 13.9373 0.244819 14.0608 0.267806 14.181C0.290794 14.3011 0.337342 14.4155 0.404765 14.5176C1.22026 15.7038 2.981 15.9633 4.35252 15.9633C4.92633 15.9605 5.49922 15.9171 6.06692 15.8335C6.18861 15.8153 6.30552 15.7732 6.41097 15.7098C6.51642 15.6464 6.60834 15.5628 6.68148 15.4638C6.75462 15.3649 6.80756 15.2525 6.83727 15.133C6.86697 15.0136 6.87287 14.8895 6.85461 14.7678C6.83636 14.6461 6.79431 14.5292 6.73088 14.4238C6.66744 14.3183 6.58386 14.2264 6.4849 14.1533C6.38594 14.0801 6.27354 14.0272 6.15412 13.9975C6.0347 13.9678 5.9106 13.9619 5.78891 13.9801L5.82597 13.9987ZM5.82597 17.1124C4.74937 17.2811 3.64994 17.2339 2.59178 16.9734C2.35952 16.8923 2.10456 16.9068 1.88297 17.0136C1.66139 17.1205 1.49134 17.311 1.41024 17.5433C1.32913 17.7756 1.34361 18.0305 1.45049 18.2521C1.55737 18.4737 1.7479 18.6437 1.98016 18.7248C2.76551 18.9701 3.58555 19.086 4.40812 19.0677C4.97557 19.0686 5.54235 19.0283 6.10398 18.9473C6.22536 18.9303 6.34215 18.8893 6.44761 18.8269C6.55306 18.7644 6.64508 18.6817 6.71834 18.5834C6.7916 18.4852 6.84464 18.3734 6.87439 18.2545C6.90415 18.1356 6.91003 18.012 6.89168 17.8908C6.87363 17.7694 6.83163 17.6527 6.7681 17.5476C6.70458 17.4425 6.62081 17.3511 6.52165 17.2787C6.42249 17.2063 6.30993 17.1543 6.1905 17.1257C6.07108 17.0972 5.94717 17.0926 5.82597 17.1124ZM9.81079 7.77122C9.69029 7.75281 9.56734 7.75834 9.44899 7.78752C9.33063 7.81669 9.21919 7.86893 9.12106 7.94124C9.02292 8.01355 8.94002 8.10451 8.87709 8.20891C8.81417 8.31332 8.77246 8.42911 8.75435 8.54965C8.73594 8.67015 8.74147 8.7931 8.77065 8.91146C8.79982 9.02982 8.85206 9.14125 8.92437 9.23939C8.99668 9.33752 9.08764 9.42043 9.19204 9.48336C9.29645 9.54628 9.41224 9.58799 9.53278 9.60609C10.1004 9.69012 10.6734 9.73347 11.2472 9.73583C12.5538 9.73583 14.2126 9.50416 15.0745 8.44772C15.3843 8.03915 15.5752 7.55285 15.6259 7.04258C15.6766 6.53231 15.5852 6.01796 15.3617 5.55641C15.3274 5.43298 15.2679 5.318 15.1869 5.21875C15.1059 5.1195 15.0052 5.03812 14.8911 4.97975C14.7771 4.92138 14.6522 4.88729 14.5243 4.87964C14.3964 4.87199 14.2683 4.89093 14.1481 4.93528C14.0279 4.97963 13.9182 5.04842 13.826 5.1373C13.7337 5.22619 13.6609 5.33324 13.6121 5.45169C13.5633 5.57015 13.5396 5.69743 13.5424 5.82551C13.5453 5.9536 13.5747 6.07969 13.6288 6.19583C13.8049 6.69625 13.8141 7.05766 13.6288 7.26154C13.1099 7.92876 11.0433 7.95656 9.81079 7.77122ZM13.6659 10.3475C13.2118 11.0147 11.136 11.0888 9.81079 10.8849C9.69029 10.8665 9.56734 10.8721 9.44899 10.9012C9.33063 10.9304 9.21919 10.9826 9.12106 11.055C9.02292 11.1273 8.94002 11.2182 8.87709 11.3226C8.81417 11.427 8.77246 11.5428 8.75435 11.6634C8.73594 11.7839 8.74147 11.9068 8.77065 12.0252C8.79982 12.1435 8.85206 12.255 8.92437 12.3531C8.99668 12.4512 9.08764 12.5341 9.19204 12.5971C9.29645 12.66 9.41224 12.7017 9.53278 12.7198C10.0999 12.8083 10.6732 12.8516 11.2472 12.8496C12.6187 12.8496 14.3794 12.5901 15.1949 11.4039C15.3347 11.2023 15.3888 10.9534 15.3454 10.7119C15.3019 10.4705 15.1645 10.2561 14.9633 10.1158C14.8631 10.0451 14.7499 9.99505 14.6303 9.96845C14.5106 9.94184 14.3869 9.93923 14.2662 9.96078C14.1455 9.98233 14.0303 10.0276 13.9273 10.094C13.8243 10.1603 13.7354 10.2465 13.6659 10.3475ZM13.6659 13.4612C13.2118 14.1284 11.136 14.2025 9.81079 13.9987C9.68615 13.9791 9.55882 13.9853 9.43663 14.0167C9.31443 14.0481 9.19994 14.1041 9.10016 14.1813C9.00038 14.2585 8.91742 14.3553 8.85637 14.4657C8.79531 14.5761 8.75744 14.6979 8.74509 14.8234C8.72667 14.9439 8.73221 15.0669 8.76138 15.1852C8.79055 15.3036 8.84279 15.415 8.9151 15.5132C8.98741 15.6113 9.07837 15.6942 9.18278 15.7571C9.28718 15.8201 9.40297 15.8618 9.52352 15.8799C10.0912 15.9635 10.6641 16.0068 11.2379 16.0096C12.6094 16.0096 14.3702 15.7501 15.1857 14.564C15.3254 14.3623 15.3795 14.1135 15.3361 13.872C15.2927 13.6305 15.1553 13.4161 14.954 13.2758C14.758 13.1313 14.513 13.0697 14.2719 13.1044C14.0309 13.139 13.8132 13.2672 13.6659 13.4612ZM13.045 16.9734C11.9868 17.2336 10.8874 17.2809 9.81079 17.1124C9.69029 17.094 9.56734 17.0995 9.44899 17.1287C9.33063 17.1579 9.21919 17.2101 9.12106 17.2824C9.02292 17.3547 8.94002 17.4457 8.87709 17.5501C8.81417 17.6545 8.77246 17.7703 8.75435 17.8908C8.73594 18.0113 8.74147 18.1343 8.77065 18.2526C8.79982 18.371 8.85206 18.4824 8.92437 18.5805C8.99668 18.6787 9.08764 18.7616 9.19204 18.8245C9.29645 18.8874 9.41224 18.9292 9.53278 18.9473C10.0944 19.0283 10.6612 19.0686 11.2286 19.0677C12.0512 19.086 12.8713 18.9701 13.6566 18.7248C13.8889 18.6437 14.0794 18.4737 14.1863 18.2521C14.2932 18.0305 14.3076 17.7756 14.2265 17.5433C14.1454 17.311 13.9754 17.1205 13.7538 17.0136C13.5322 16.9068 13.2772 16.8923 13.045 16.9734Z" fill="#B91C1C"/>
<path d="M17.75 6V3.75H20V2.25H17.75V0H16.25V2.25H14V3.75H16.25V6H17.75Z" fill="#B91C1C"/>
</svg>
