<svg width="18" height="16" viewBox="0 0 18 16" fill="none" xmlns="http://www.w3.org/2000/svg">
<path d="M4.92992 5.51731C5.57438 5.51466 6.21783 5.46596 6.85536 5.3716C7.13139 5.33019 7.37966 5.18083 7.54557 4.95637C7.71147 4.73191 7.78142 4.45074 7.74001 4.17471C7.69861 3.89868 7.54925 3.6504 7.32479 3.48449C7.10033 3.31859 6.81915 3.24864 6.54312 3.29005C5.15889 3.50861 2.84837 3.46698 2.24472 2.72803C2.04698 2.49906 2.05738 2.09316 2.24472 1.53114C2.3149 1.39975 2.35607 1.25483 2.36542 1.10617C2.37478 0.957506 2.35212 0.808567 2.29897 0.669416C2.24582 0.530264 2.16342 0.404142 2.05734 0.299573C1.95126 0.195004 1.82397 0.114423 1.68407 0.0632771C1.54417 0.0121308 1.39492 -0.00838992 1.24641 0.00310218C1.0979 0.0145943 0.953581 0.0578309 0.823215 0.129891C0.692849 0.201951 0.579469 0.301155 0.490738 0.420799C0.402006 0.540444 0.339991 0.67774 0.308881 0.823412C0.060026 1.34049 -0.0415194 1.91614 0.0153982 2.48715C0.0723158 3.05816 0.285495 3.60244 0.631522 4.06022C1.59944 5.25711 3.46243 5.51731 4.92992 5.51731ZM6.54312 6.80787C5.05482 7.03684 2.72348 6.95358 2.2135 6.20422C2.13542 6.09084 2.03563 5.99408 1.9199 5.91953C1.80416 5.84499 1.67479 5.79415 1.53927 5.76995C1.40376 5.74575 1.26478 5.74867 1.1304 5.77855C0.996025 5.80843 0.868907 5.86468 0.756414 5.94402C0.641171 6.01882 0.541875 6.11568 0.464255 6.22904C0.386635 6.3424 0.332227 6.47 0.304168 6.60449C0.276109 6.73898 0.274954 6.8777 0.300772 7.01264C0.326589 7.14757 0.378867 7.27607 0.45459 7.3907C1.37047 8.72289 3.34794 9.01431 4.88829 9.01431C5.53294 9.01665 6.17677 8.96793 6.81372 8.8686C6.95372 8.85461 7.08943 8.81238 7.21264 8.74446C7.33586 8.67655 7.44403 8.58435 7.53061 8.47345C7.61719 8.36255 7.68038 8.23525 7.71637 8.09924C7.75237 7.96323 7.76041 7.82133 7.74001 7.68212C7.71975 7.54571 7.67257 7.41469 7.60123 7.29667C7.52988 7.17865 7.4358 7.07598 7.32443 6.99464C7.21307 6.9133 7.08665 6.8549 6.95252 6.82284C6.8184 6.79077 6.67923 6.78568 6.54312 6.80787ZM6.54312 10.3049C5.05482 10.5338 2.72348 10.4506 2.2135 9.70122C2.13542 9.58784 2.03563 9.49108 1.9199 9.41654C1.80416 9.34199 1.67479 9.29115 1.53927 9.26695C1.40376 9.24275 1.26478 9.24568 1.1304 9.27556C0.996025 9.30544 0.868907 9.36168 0.756414 9.44103C0.641171 9.51582 0.541875 9.61269 0.464255 9.72605C0.386635 9.8394 0.332227 9.96701 0.304168 10.1015C0.276109 10.236 0.274954 10.3747 0.300772 10.5096C0.326589 10.6446 0.378867 10.7731 0.45459 10.8877C1.37047 12.2199 3.34794 12.5113 4.88829 12.5113C5.53273 12.5082 6.17615 12.4595 6.81372 12.3656C6.9504 12.3451 7.0817 12.2979 7.20013 12.2266C7.31855 12.1554 7.42179 12.0615 7.50394 11.9504C7.58609 11.8392 7.64554 11.713 7.6789 11.5789C7.71227 11.4448 7.71888 11.3054 7.69838 11.1687C7.67788 11.032 7.63066 10.9007 7.55942 10.7823C7.48817 10.6639 7.3943 10.5606 7.28316 10.4785C7.17202 10.3964 7.04578 10.3369 6.91166 10.3035C6.77754 10.2702 6.63817 10.2636 6.50149 10.2841L6.54312 10.3049ZM6.54312 13.8019C5.33399 13.9914 4.09923 13.9383 2.91082 13.6458C2.64997 13.5547 2.36362 13.5709 2.11476 13.691C1.8659 13.811 1.67492 14.025 1.58383 14.2858C1.49274 14.5467 1.509 14.833 1.62904 15.0819C1.74908 15.3308 1.96306 15.5217 2.22391 15.6128C3.10593 15.8883 4.02692 16.0184 4.95074 15.9979C5.58804 15.9989 6.22458 15.9536 6.85536 15.8626C6.99167 15.8435 7.12284 15.7976 7.24128 15.7274C7.35971 15.6573 7.46306 15.5644 7.54534 15.454C7.62761 15.3437 7.68718 15.2181 7.7206 15.0846C7.75402 14.951 7.76062 14.8122 7.74001 14.6761C7.71975 14.5397 7.67257 14.4087 7.60123 14.2907C7.52988 14.1727 7.4358 14.07 7.32443 13.9887C7.21307 13.9073 7.08665 13.8489 6.95252 13.8168C6.8184 13.7848 6.67923 13.7797 6.54312 13.8019ZM11.0185 3.31086C10.8831 3.29018 10.745 3.2964 10.6121 3.32916C10.4792 3.36193 10.354 3.4206 10.2438 3.50181C10.1336 3.58302 10.0405 3.68518 9.96982 3.80243C9.89915 3.91968 9.85231 4.04973 9.83197 4.18511C9.81129 4.32045 9.81751 4.45853 9.85027 4.59146C9.88304 4.72438 9.94171 4.84954 10.0229 4.95975C10.1041 5.06997 10.2063 5.16308 10.3235 5.23375C10.4408 5.30442 10.5708 5.35126 10.7062 5.3716C11.3437 5.46596 11.9872 5.51466 12.6317 5.51731C14.0991 5.51731 15.9621 5.25711 16.9301 4.07063C17.2781 3.61177 17.4924 3.06561 17.5493 2.49252C17.6063 1.91944 17.5036 1.34178 17.2527 0.823412C17.2141 0.684789 17.1473 0.555665 17.0563 0.444193C16.9653 0.332721 16.8522 0.241324 16.7241 0.175772C16.5961 0.11022 16.4558 0.0719373 16.3121 0.0633417C16.1685 0.054746 16.0247 0.0760242 15.8897 0.125832C15.7547 0.17564 15.6315 0.252896 15.5279 0.352722C15.4243 0.452547 15.3425 0.572774 15.2877 0.70581C15.2329 0.838846 15.2062 0.9818 15.2095 1.12565C15.2127 1.26949 15.2457 1.41111 15.3064 1.54155C15.5042 2.10356 15.5146 2.50947 15.3064 2.73844C14.7236 3.4878 12.4027 3.51902 11.0185 3.31086ZM15.3481 6.20422C14.8381 6.95358 12.5068 7.03684 11.0185 6.80787C10.8831 6.78718 10.745 6.7934 10.6121 6.82617C10.4792 6.85893 10.354 6.9176 10.2438 6.99881C10.1336 7.08002 10.0405 7.18218 9.96982 7.29944C9.89915 7.41669 9.85231 7.54673 9.83197 7.68212C9.81129 7.81745 9.81751 7.95554 9.85027 8.08846C9.88304 8.22139 9.94171 8.34654 10.0229 8.45676C10.1041 8.56697 10.2063 8.66008 10.3235 8.73075C10.4408 8.80142 10.5708 8.84827 10.7062 8.8686C11.3432 8.96793 11.987 9.01665 12.6317 9.01431C14.172 9.01431 16.1495 8.72289 17.0654 7.3907C17.2223 7.16424 17.2831 6.88477 17.2343 6.61358C17.1855 6.34239 17.0312 6.1016 16.8052 5.94402C16.6927 5.86468 16.5656 5.80843 16.4312 5.77855C16.2968 5.74867 16.1578 5.74575 16.0223 5.76995C15.8868 5.79415 15.7574 5.84499 15.6417 5.91953C15.526 5.99408 15.4262 6.09084 15.3481 6.20422ZM15.3481 9.70122C14.8381 10.4506 12.5068 10.5338 11.0185 10.3049C10.8785 10.2829 10.7355 10.2898 10.5982 10.3251C10.461 10.3604 10.3324 10.4233 10.2203 10.51C10.1083 10.5967 10.0151 10.7054 9.94654 10.8294C9.87797 10.9534 9.83544 11.0901 9.82156 11.2312C9.80088 11.3665 9.8071 11.5046 9.83986 11.6375C9.87263 11.7704 9.9313 11.8956 10.0125 12.0058C10.0937 12.116 10.1959 12.2091 10.3131 12.2798C10.4304 12.3505 10.5604 12.3973 10.6958 12.4176C11.3334 12.5115 11.9768 12.5602 12.6212 12.5634C14.1616 12.5634 16.1391 12.2719 17.055 10.9397C17.2119 10.7133 17.2727 10.4338 17.2239 10.1626C17.1751 9.89143 17.0208 9.65064 16.7948 9.49307C16.5746 9.33071 16.2995 9.26152 16.0287 9.30048C15.758 9.33943 15.5135 9.48339 15.3481 9.70122ZM14.6508 13.6458C13.4623 13.9381 12.2276 13.9911 11.0185 13.8019C10.8831 13.7812 10.745 13.7874 10.6121 13.8202C10.4792 13.8529 10.354 13.9116 10.2438 13.9928C10.1336 14.074 10.0405 14.1762 9.96982 14.2934C9.89915 14.4107 9.85231 14.5407 9.83197 14.6761C9.81129 14.8115 9.81751 14.9495 9.85027 15.0825C9.88304 15.2154 9.94171 15.3405 10.0229 15.4508C10.1041 15.561 10.2063 15.6541 10.3235 15.7248C10.4408 15.7954 10.5708 15.8423 10.7062 15.8626C11.337 15.9536 11.9735 15.9989 12.6108 15.9979C13.5347 16.0184 14.4556 15.8883 15.3377 15.6128C15.5985 15.5217 15.8125 15.3308 15.9325 15.0819C16.0526 14.833 16.0688 14.5467 15.9777 14.2858C15.8867 14.025 15.6957 13.811 15.4468 13.691C15.198 13.5709 14.9116 13.5547 14.6508 13.6458Z" fill="#B91C1C"/>
</svg>
